<svg width="40" height="40" viewBox="0 0 40 40" fill="none" xmlns="http://www.w3.org/2000/svg">
<path fill-rule="evenodd" clip-rule="evenodd" d="M12.8232 28.5714H16.7181L16.7192 28.5714C16.7192 28.5714 16.9939 28.5719 17.2481 28.4675C17.2481 28.4675 17.5035 28.3627 17.6991 28.168L28.1593 17.7078C28.1593 17.7078 28.3552 17.5149 28.4634 17.2565C28.4634 17.2565 28.5716 16.9981 28.5716 16.7179C28.5716 16.7179 28.5716 16.4378 28.4634 16.1793C28.4634 16.1793 28.3552 15.9209 28.1555 15.7243L24.2721 11.8408C24.2721 11.8408 24.0792 11.645 23.8208 11.5368C23.8208 11.5368 23.5624 11.4286 23.2822 11.4286C23.2822 11.4286 23.0021 11.4286 22.7436 11.5368C22.7436 11.5368 22.4852 11.645 22.2886 11.8446L11.8334 22.2998C11.8334 22.2998 11.6375 22.4967 11.5326 22.752C11.5326 22.752 11.4277 23.0074 11.4287 23.2834L11.4287 27.1769C11.4287 27.1769 11.4287 27.7545 11.8372 28.163C11.8372 28.163 12.2456 28.5714 12.8232 28.5714ZM27.1732 16.7217L16.718 27.1769H12.8232L12.8232 23.2821L23.2822 12.8231L23.286 12.8269L27.177 16.7179L27.1732 16.7217Z" fill="#252525"/>
<path d="M24.8806 19.9997C25.0114 20.1305 25.1891 20.2043 25.374 20.2043C25.5589 20.2043 25.7363 20.1309 25.8671 20.0001C25.9978 19.8693 26.0713 19.692 26.0713 19.5071C26.0713 19.3221 25.9978 19.1448 25.8671 19.014L20.9863 14.1332C20.8554 14.0024 20.6781 13.9289 20.4932 13.9289C20.3082 13.9289 20.1309 14.0024 20.0001 14.1332C19.8694 14.2639 19.7959 14.4413 19.7959 14.6262C19.7959 14.8111 19.8694 14.9885 20.0001 15.1192L24.8806 19.9997Z" fill="#252525"/>
</svg>
