<svg width="209" height="45" viewBox="0 0 209 45" fill="none" xmlns="http://www.w3.org/2000/svg">
<g clip-path="url(#clip0_1069_7301)">
<path fill-rule="evenodd" clip-rule="evenodd" d="M0 0H1.65V29H0V0ZM5.22498 3.28304H20.625V8.48115H5.22498V3.28304ZM55 1.23978e-05H53.35V29H55V1.23978e-05ZM13.75 11.7642H37.95V16.9623H13.75V11.7642ZM49.775 20.2453H31.075V25.4434H49.775V20.2453Z" fill="#4D90F1"/>
<path d="M72.312 20V8.8H74.12V20H72.312Z" fill="#252525"/>
<path d="M84.5735 8.8V10.528H81.1495V20H79.3415V10.528H75.9335V8.8H84.5735Z" fill="#252525"/>
<path d="M90.9665 8.8C92.1825 8.8 93.1425 9.136 93.8465 9.808C94.5505 10.48 94.9025 11.3707 94.9025 12.48C94.9025 13.5893 94.5452 14.4907 93.8305 15.184C93.1265 15.8667 92.1718 16.208 90.9665 16.208H88.1825V20H86.3745V8.8H90.9665ZM90.9025 14.48C91.6065 14.48 92.1398 14.2987 92.5025 13.936C92.8758 13.5733 93.0625 13.0933 93.0625 12.496C93.0625 11.8987 92.8812 11.424 92.5185 11.072C92.1558 10.7093 91.6172 10.528 90.9025 10.528H88.1825V14.48H90.9025Z" fill="#252525"/>
<path d="M105.511 8.8H107.639V20H105.831V11.248L102.375 16.464H102.199L98.7587 11.248V20H96.9507V8.8H99.0788L102.295 13.632L105.511 8.8Z" fill="#252525"/>
<path d="M120.406 20.192C118.742 20.192 117.361 19.6427 116.262 18.544C115.174 17.4453 114.63 16.064 114.63 14.4C114.63 12.736 115.174 11.3547 116.262 10.256C117.361 9.15733 118.742 8.608 120.406 8.608C121.686 8.608 122.811 8.96533 123.782 9.68C124.753 10.384 125.414 11.3227 125.766 12.496H123.83C123.531 11.8347 123.078 11.312 122.47 10.928C121.862 10.5333 121.169 10.336 120.39 10.336C119.249 10.336 118.305 10.72 117.558 11.488C116.822 12.256 116.454 13.2267 116.454 14.4C116.454 15.5733 116.822 16.544 117.558 17.312C118.305 18.08 119.249 18.464 120.39 18.464C121.169 18.464 121.862 18.272 122.47 17.888C123.078 17.4933 123.531 16.9653 123.83 16.304H125.766C125.414 17.4773 124.753 18.4213 123.782 19.136C122.811 19.84 121.686 20.192 120.406 20.192Z" fill="#252525"/>
<path d="M131.75 11.008C133.03 11.008 134.107 11.4453 134.982 12.32C135.867 13.1947 136.31 14.288 136.31 15.6C136.31 16.912 135.873 18.0053 134.998 18.88C134.123 19.7547 133.041 20.192 131.75 20.192C130.47 20.192 129.387 19.7547 128.502 18.88C127.627 17.9947 127.19 16.9013 127.19 15.6C127.19 14.288 127.633 13.1947 128.518 12.32C129.403 11.4453 130.481 11.008 131.75 11.008ZM133.686 13.552C133.163 13.008 132.518 12.736 131.75 12.736C130.982 12.736 130.331 13.008 129.798 13.552C129.275 14.0853 129.014 14.768 129.014 15.6C129.014 16.4427 129.275 17.1307 129.798 17.664C130.321 18.1973 130.971 18.464 131.75 18.464C132.529 18.464 133.179 18.1973 133.702 17.664C134.225 17.1307 134.486 16.4427 134.486 15.6C134.486 14.768 134.219 14.0853 133.686 13.552Z" fill="#252525"/>
<path d="M148.358 11.008C149.286 11.008 150.012 11.3067 150.535 11.904C151.068 12.4907 151.335 13.3067 151.335 14.352V20H149.527V14.736C149.527 13.4027 148.945 12.736 147.783 12.736C147.089 12.736 146.556 12.9813 146.182 13.472C145.809 13.9627 145.622 14.6187 145.622 15.44L145.639 20H143.814V14.736C143.814 13.4027 143.233 12.736 142.07 12.736C141.377 12.736 140.844 12.9813 140.47 13.472C140.108 13.9627 139.926 14.6187 139.926 15.44V20H138.118V11.2H139.926V12.608C140.566 11.5413 141.479 11.008 142.663 11.008C144.028 11.008 144.935 11.6213 145.383 12.848C146.023 11.6213 147.014 11.008 148.358 11.008Z" fill="#252525"/>
<path d="M163.608 11.008C164.536 11.008 165.262 11.3067 165.785 11.904C166.318 12.4907 166.585 13.3067 166.585 14.352V20H164.777V14.736C164.777 13.4027 164.195 12.736 163.033 12.736C162.339 12.736 161.806 12.9813 161.432 13.472C161.059 13.9627 160.872 14.6187 160.872 15.44L160.889 20H159.064V14.736C159.064 13.4027 158.483 12.736 157.32 12.736C156.627 12.736 156.094 12.9813 155.72 13.472C155.358 13.9627 155.176 14.6187 155.176 15.44V20H153.368V11.2H155.176V12.608C155.816 11.5413 156.729 11.008 157.913 11.008C159.278 11.008 160.185 11.6213 160.633 12.848C161.273 11.6213 162.264 11.008 163.608 11.008Z" fill="#252525"/>
<path d="M174.587 11.2H176.395V20H174.587V18.544C173.904 19.6427 172.928 20.192 171.659 20.192C170.688 20.192 169.925 19.888 169.37 19.28C168.816 18.672 168.538 17.8293 168.538 16.752V11.2H170.346V16.384C170.346 17.7707 170.976 18.464 172.234 18.464C172.981 18.464 173.557 18.2293 173.962 17.76C174.378 17.28 174.587 16.6133 174.587 15.76V11.2Z" fill="#252525"/>
<path d="M183.23 11.008C184.222 11.008 184.995 11.312 185.55 11.92C186.115 12.528 186.398 13.3707 186.398 14.448V20H184.59V14.816C184.59 13.4293 183.95 12.736 182.67 12.736C181.902 12.736 181.31 12.976 180.894 13.456C180.489 13.9253 180.286 14.5867 180.286 15.44V20H178.478V11.2H180.286V12.656C180.958 11.5573 181.939 11.008 183.23 11.008Z" fill="#252525"/>
<path d="M189.327 7.232C189.668 7.232 189.951 7.33867 190.175 7.552C190.399 7.75467 190.511 8.016 190.511 8.336C190.511 8.66667 190.399 8.93867 190.175 9.152C189.951 9.36533 189.668 9.472 189.327 9.472C188.996 9.472 188.719 9.36533 188.495 9.152C188.271 8.93867 188.159 8.66667 188.159 8.336C188.159 8.016 188.271 7.75467 188.495 7.552C188.719 7.33867 188.996 7.232 189.327 7.232ZM188.431 20V11.2H190.239V20H188.431Z" fill="#252525"/>
<path d="M198.705 18.08L199.025 19.552C198.311 19.9787 197.473 20.192 196.513 20.192C195.564 20.192 194.791 19.888 194.193 19.28C193.596 18.672 193.297 17.7867 193.297 16.624V12.896H191.665V11.2H193.297V9.2L195.105 8.8V11.2H198.721V12.896H195.105V16.528C195.105 17.8507 195.681 18.512 196.833 18.512C197.26 18.512 197.884 18.368 198.705 18.08Z" fill="#252525"/>
<path d="M206.798 11.2H208.734L202.91 24H200.973L203.294 18.88L199.822 11.2H201.758L204.253 16.928L206.798 11.2Z" fill="#252525"/>
<path fill-rule="evenodd" clip-rule="evenodd" d="M199 45H11V44H199V45Z" fill="#4D90F1"/>
</g>
<defs>
<clipPath id="clip0_1069_7301">
<rect width="208.734" height="45" fill="white"/>
</clipPath>
</defs>
</svg>
