<svg width="32" height="32" viewBox="0 0 32 32" fill="none" xmlns="http://www.w3.org/2000/svg">
<g clip-path="url(#clip0_1069_7261)">
<path fill-rule="evenodd" clip-rule="evenodd" d="M16 4C22.6274 4 28 9.37258 28 16C28 22.6274 22.6274 28 16 28C9.37258 28 4 22.6274 4 16C4 9.37258 9.37258 4 16 4ZM16.0004 5.39797C21.8556 5.39863 26.6017 10.1456 26.6012 16.0008C26.6008 21.8559 21.854 26.6022 15.9988 26.602C10.1437 26.6017 5.39724 21.8551 5.39724 16C5.39732 13.188 6.5145 10.4912 8.503 8.50289C10.4915 6.51461 13.1884 5.39773 16.0004 5.39797V5.39797ZM12.2039 10.7951C11.833 10.7906 11.4758 10.9351 11.2123 11.1962C10.9488 11.4573 10.801 11.8131 10.802 12.1841C10.802 12.9583 11.4296 13.586 12.2039 13.586C12.9781 13.586 13.6058 12.9583 13.6058 12.1841C13.6068 11.8131 13.459 11.4573 13.1955 11.1962C12.932 10.9351 12.5748 10.7906 12.2039 10.7951V10.7951ZM23.9972 18.067C23.3582 21.52 20.0255 24.403 15.9986 24.403C12.0038 24.403 8.69062 21.562 8.01412 18.148C7.87702 17.296 8.57482 17.095 9.23212 17.254C11.431 17.8898 13.7113 18.1991 16.0001 18.172C18.2837 18.1985 20.5589 17.8902 22.7531 17.257C23.3921 17.095 24.0764 17.278 23.9972 18.067V18.067ZM21.8279 18.5469C21.7655 18.5709 21.7022 18.5889 21.6383 18.6099C21.6317 18.6129 21.8429 18.5439 21.8366 18.5469C19.9392 19.0693 17.9779 19.3227 16.01 19.2999C13.6616 19.2999 11.5613 19.0389 10.1159 18.5199C9.068 18.2079 9.269 19.4409 10.0055 19.8189C11.8897 20.6767 13.9396 21.1089 16.0097 21.0849C18.4721 21.0849 20.6663 20.5119 22.1156 19.7709C22.8014 19.3299 22.937 18.1479 21.8279 18.5469V18.5469ZM19.8039 10.7951C19.4329 10.7906 19.0757 10.9351 18.8122 11.1962C18.5486 11.4573 18.4008 11.8131 18.4017 12.1841C18.3943 12.6899 18.6599 13.1604 19.0967 13.4155C19.5335 13.6705 20.0739 13.6705 20.5107 13.4155C20.9476 13.1604 21.2132 12.6899 21.2058 12.1841C21.2067 11.8132 21.0589 11.4574 20.7954 11.1963C20.5319 10.9353 20.1748 10.7907 19.8039 10.7951V10.7951Z" fill="#252525"/>
</g>
<defs>
<clipPath id="clip0_1069_7261">
<rect width="24" height="24" fill="white" transform="translate(4 4)"/>
</clipPath>
</defs>
</svg>
