<svg width="32" height="32" viewBox="0 0 32 32" fill="none" xmlns="http://www.w3.org/2000/svg">
<path d="M23.6592 15.4656C23.7987 15.609 23.8761 15.8018 23.8743 16.0019C23.8726 16.2021 23.7919 16.3934 23.6498 16.5344L15.9623 24.2125C14.9777 25.1971 13.6422 25.7503 12.2498 25.7503C10.8573 25.7503 9.5219 25.1971 8.53728 24.2125C7.55266 23.2279 6.99951 21.8924 6.99951 20.5C6.99951 19.1075 7.55266 17.7721 8.53728 16.7875L17.8467 7.35624C18.1911 6.99306 18.6047 6.70252 19.0632 6.50173C19.5217 6.30094 20.0158 6.19397 20.5163 6.18712C21.0168 6.18027 21.5135 6.27369 21.9774 6.46186C22.4412 6.65003 22.8626 6.92916 23.2169 7.28277C23.5711 7.63639 23.851 8.05735 24.04 8.52083C24.229 8.98431 24.3233 9.48093 24.3173 9.98143C24.3113 10.4819 24.2052 10.9762 24.0053 11.435C23.8053 11.8939 23.5155 12.308 23.1529 12.6531L13.8435 22.0844C13.6354 22.2957 13.3873 22.4633 13.1137 22.5776C12.84 22.6919 12.5463 22.7505 12.2498 22.75C11.804 22.7511 11.3679 22.6197 10.9969 22.3726C10.6258 22.1254 10.3366 21.7736 10.1658 21.3618C9.99508 20.95 9.95051 20.4967 10.0378 20.0595C10.1251 19.6223 10.3402 19.2209 10.656 18.9062L18.4654 10.975C18.533 10.8992 18.6152 10.8379 18.7072 10.7948C18.7992 10.7518 18.8989 10.7279 19.0004 10.7245C19.1019 10.7211 19.203 10.7384 19.2977 10.7753C19.3923 10.8122 19.4784 10.8679 19.5508 10.9391C19.6233 11.0103 19.6805 11.0954 19.7191 11.1893C19.7576 11.2833 19.7767 11.3841 19.7751 11.4856C19.7736 11.5871 19.7514 11.6873 19.71 11.78C19.6686 11.8727 19.6087 11.9561 19.5342 12.025L11.7248 19.9656C11.6537 20.0353 11.5972 20.1184 11.5586 20.2102C11.5199 20.3019 11.4999 20.4004 11.4998 20.5C11.5025 20.6475 11.5482 20.7911 11.6312 20.9131C11.7143 21.0351 11.8311 21.1303 11.9673 21.1869C12.1036 21.2436 12.2534 21.2594 12.3985 21.2323C12.5435 21.2052 12.6776 21.1364 12.7842 21.0344L22.0842 11.5937C22.2954 11.3856 22.4631 11.1375 22.5774 10.8639C22.6917 10.5902 22.7503 10.2965 22.7498 9.99999C22.7509 9.55418 22.6195 9.11809 22.3724 8.74706C22.1252 8.37603 21.7734 8.08679 21.3616 7.91604C20.9498 7.74528 20.4965 7.70072 20.0593 7.78799C19.6221 7.87527 19.2207 8.09045 18.906 8.40624L9.60603 17.8469C9.24285 18.1913 8.95231 18.605 8.75152 19.0634C8.55073 19.5219 8.44376 20.016 8.43691 20.5165C8.43006 21.017 8.52348 21.5138 8.71165 21.9776C8.89983 22.4414 9.17895 22.8628 9.53257 23.2171C9.88618 23.5713 10.3071 23.8512 10.7706 24.0402C11.2341 24.2292 11.7307 24.3235 12.2312 24.3175C12.7317 24.3115 13.226 24.2054 13.6848 24.0055C14.1437 23.8055 14.5578 23.5157 14.9029 23.1531L22.5904 15.4656C22.7326 15.3248 22.9246 15.2458 23.1248 15.2458C23.3249 15.2458 23.517 15.3248 23.6592 15.4656Z" fill="#252525"/>
</svg>
