<svg width="32" height="32" viewBox="0 0 32 32" fill="none" xmlns="http://www.w3.org/2000/svg">
<path d="M13.0386 22.5123C13.0132 22.5888 13 22.6694 13 22.75L13.0002 22.7659C13.0025 22.877 13.0295 22.9861 13.0792 23.0854C13.1681 23.2633 13.3241 23.3986 13.5128 23.4615C13.5893 23.487 13.6694 23.5 13.75 23.5C13.7638 23.5 13.7776 23.4996 13.7914 23.4989C14.0986 23.4819 14.3642 23.279 14.4615 22.9872L18.9615 9.48736C18.9869 9.41088 19 9.33061 19 9.25L18.9998 9.23408C18.9975 9.12305 18.9705 9.01392 18.9208 8.91459C18.8319 8.73668 18.6759 8.60139 18.4872 8.53849C18.4107 8.513 18.3306 8.5 18.25 8.5C18.2362 8.5 18.2224 8.50038 18.2086 8.50114C17.9014 8.51812 17.6358 8.72097 17.5385 9.01283L13.0386 22.5123Z" fill="#252525"/>
<path d="M10 23.5H17.5C17.9142 23.5 18.25 23.1642 18.25 22.75C18.25 22.3358 17.9142 22 17.5 22H10C9.58579 22 9.25 22.3358 9.25 22.75C9.25 23.1642 9.58579 23.5 10 23.5Z" fill="#252525"/>
<path d="M14.5 10H22C22.4142 10 22.75 9.66421 22.75 9.25C22.75 8.83579 22.4142 8.5 22 8.5H14.5C14.0858 8.5 13.75 8.83579 13.75 9.25C13.75 9.66421 14.0858 10 14.5 10Z" fill="#252525"/>
</svg>
