<svg width="32" height="32" viewBox="0 0 32 32" fill="none" xmlns="http://www.w3.org/2000/svg">
<path d="M7.75 16.75H24.25C24.6642 16.75 25 16.4142 25 16C25 15.5858 24.6642 15.25 24.25 15.25H7.75C7.33579 15.25 7 15.5858 7 16C7 16.4142 7.33579 16.75 7.75 16.75Z" fill="#252525"/>
<path d="M18.5522 9.83392C19.554 10.3658 19.9653 11.2169 19.9653 11.2169C20.0905 11.476 20.3529 11.6406 20.6406 11.6406L20.6581 11.6404C20.7652 11.6379 20.8705 11.6125 20.9669 11.5659C21.146 11.4794 21.2834 11.3252 21.3489 11.1374C21.3765 11.0581 21.3906 10.9746 21.3906 10.8906L21.3906 10.8848C21.3897 10.7738 21.3642 10.6643 21.3159 10.5643C20.691 9.27109 19.2556 8.50905 19.2556 8.50905C17.8258 7.75 16 7.75 16 7.75C13.5983 7.75 11.9753 9.00467 11.9753 9.00467C10.2906 10.307 10.2906 12.25 10.2906 12.25C10.2848 12.7468 10.4387 13.2284 10.4387 13.2284C10.5381 13.5391 10.8269 13.75 11.1531 13.75L11.1579 13.75C11.2338 13.7495 11.3092 13.7375 11.3815 13.7144C11.571 13.6538 11.7286 13.5204 11.8198 13.3436C11.8745 13.2374 11.9031 13.1196 11.9031 13L11.903 12.9879C11.9018 12.9145 11.8899 12.8416 11.8675 12.7716C11.7875 12.5214 11.7906 12.25 11.7906 12.25C11.7906 11.0433 12.8927 10.1914 12.8927 10.1914C14.1105 9.25 16 9.25 16 9.25C17.4523 9.25 18.5522 9.83392 18.5522 9.83392Z" fill="#252525"/>
<path d="M17.1852 15.2801C17.117 15.2602 17.0461 15.25 16.975 15.25L16.9742 15.25C16.6412 15.2503 16.3483 15.4703 16.255 15.79C16.2351 15.8582 16.225 15.9289 16.225 16L16.225 16.0071C16.2262 16.1308 16.2579 16.2522 16.3174 16.3606C16.413 16.535 16.574 16.6643 16.765 16.72L16.7664 16.7204C18.6781 17.2781 19.5132 17.8895 19.5132 17.8895C20.5 18.612 20.5 19.75 20.5 19.75C20.5 20.9174 19.2755 21.7916 19.2755 21.7916C17.9331 22.75 16 22.75 16 22.75C14.0669 22.75 12.7245 21.7916 12.7245 21.7916C11.5 20.9174 11.5 19.75 11.5 19.75C11.5 19.3358 11.1642 19 10.75 19C10.5511 19 10.3603 19.079 10.2197 19.2197C10.079 19.3603 10 19.5511 10 19.75L10 19.7508C10.0002 20.719 10.5177 21.5923 10.5177 21.5923C10.9971 22.4014 11.8529 23.0124 11.8529 23.0124C13.5864 24.25 16 24.25 16 24.25C18.4136 24.25 20.1471 23.0124 20.1471 23.0124C21.0029 22.4014 21.4823 21.5923 21.4823 21.5923C22 20.7187 22 19.75 22 19.75C22 17.8512 20.3993 16.6792 20.3993 16.6792C19.3512 15.9119 17.1852 15.2801 17.1852 15.2801Z" fill="#252525"/>
</svg>
