<svg width="24" height="24" viewBox="0 0 24 24" fill="none" xmlns="http://www.w3.org/2000/svg">
<path fill-rule="evenodd" clip-rule="evenodd" d="M13.2858 21.0741L14.6784 18.75L20.25 18.75C20.25 18.75 20.8713 18.75 21.3107 18.3107C21.3107 18.3107 21.75 17.8713 21.75 17.25V5.25C21.75 5.25 21.75 4.62868 21.3107 4.18934C21.3107 4.18934 20.8713 3.75 20.25 3.75H3.75C3.75 3.75 3.12868 3.75 2.68934 4.18934C2.68934 4.18934 2.25 4.62868 2.25 5.25V17.25C2.25 17.25 2.25 17.8713 2.68934 18.3107C2.68934 18.3107 3.12868 18.75 3.75 18.75H9.32164L10.7098 21.0667C10.7098 21.0667 10.9202 21.4091 11.2635 21.601C11.2635 21.601 11.6067 21.7929 12 21.7929C12 21.7929 12.3933 21.7929 12.7365 21.601C12.7365 21.601 13.0798 21.4091 13.2858 21.0741ZM13.391 17.9801C13.391 17.9801 13.5909 17.6429 13.9314 17.4476C13.9314 17.4476 14.2748 17.2506 14.6707 17.25L20.25 17.25V5.25H3.75V17.25H9.32812C9.32812 17.25 9.72517 17.2506 10.0686 17.4476C10.0686 17.4476 10.4119 17.6445 10.6124 17.9859L11.9963 20.2954L11.9947 20.2915L11.9954 20.2917C11.9954 20.2917 11.9976 20.2929 12 20.2929L12.0017 20.2927L12.0046 20.2917C12.0046 20.2917 12.0067 20.2905 12.008 20.2884L13.3896 17.9826L13.391 17.9801Z" fill="#252525"/>
</svg>
