<svg width="24" height="24" viewBox="0 0 24 24" fill="none" xmlns="http://www.w3.org/2000/svg">
<path fill-rule="evenodd" clip-rule="evenodd" d="M2.25 5.25C2.25 5.25 2.25 4.62868 2.68934 4.18934C2.68934 4.18934 3.12868 3.75 3.75 3.75H20.25C20.25 3.75 20.8713 3.75 21.3107 4.18934C21.3107 4.18934 21.75 4.62868 21.75 5.25V18.75C21.75 18.75 21.75 19.3713 21.3107 19.8107C21.3107 19.8107 20.8713 20.25 20.25 20.25H3.75C3.75 20.25 3.12868 20.25 2.68934 19.8107C2.68934 19.8107 2.25 19.3713 2.25 18.75V5.25ZM3.75 5.25V18.75H20.25V5.25H3.75Z" fill="#252525"/>
<path d="M16.504 13.8146L20.4697 17.7802C20.6103 17.9209 20.8011 17.9999 21 17.9999C21.1989 17.9999 21.3897 17.9209 21.5303 17.7802C21.671 17.6396 21.75 17.4488 21.75 17.2499C21.75 17.051 21.671 16.8602 21.5303 16.7196L17.5647 12.754C17.3573 12.5433 17.0793 12.4269 17.0793 12.4269C16.8014 12.3105 16.5 12.3105 16.5 12.3105C16.1986 12.3105 15.9207 12.4269 15.9207 12.4269C15.6427 12.5433 15.4313 12.758 15.4313 12.758L13.504 14.6852L13.5 14.6893L9.3147 10.504C9.1073 10.2933 8.82933 10.1769 8.82933 10.1769C8.55135 10.0605 8.25 10.0605 8.25 10.0605C7.94865 10.0605 7.67067 10.1769 7.67067 10.1769C7.3927 10.2933 7.18125 10.508 7.18125 10.508L2.46995 15.2193C2.3293 15.36 2.25 15.551 2.25 15.7499C2.25 15.7619 2.25029 15.7739 2.25087 15.7859C2.25982 15.9722 2.33783 16.1484 2.46967 16.2802C2.61032 16.4209 2.80109 16.4999 3 16.4999C3.19891 16.4999 3.38968 16.4209 3.53033 16.2802L8.25 11.5605L8.25404 11.5646L12.4313 15.7418C12.6427 15.9565 12.9207 16.0729 12.9207 16.0729C13.1986 16.1893 13.5 16.1893 13.5 16.1893C13.8014 16.1893 14.0793 16.0729 14.0793 16.0729C14.3573 15.9565 14.5647 15.7459 14.5647 15.7459L16.5 13.8105L16.504 13.8146Z" fill="#252525"/>
<path d="M15.75 9.375C15.75 9.99632 15.2463 10.5 14.625 10.5C14.0037 10.5 13.5 9.99632 13.5 9.375C13.5 8.75368 14.0037 8.25 14.625 8.25C15.2463 8.25 15.75 8.75368 15.75 9.375Z" fill="#252525"/>
</svg>
