<svg width="24" height="24" viewBox="0 0 24 24" fill="none" xmlns="http://www.w3.org/2000/svg">
<path d="M2 11.75C2 6.36522 6.36522 2 11.75 2C17.1348 2 21.5 6.36522 21.5 11.75C21.5 17.1348 17.1348 21.5 11.75 21.5C6.36522 21.5 2 17.1348 2 11.75Z" fill="#60DA74"/>
<path d="M7.72491 11.2129C7.64873 11.1367 7.54524 11.0938 7.4375 11.0938C7.32976 11.0937 7.22642 11.1366 7.15024 11.2127C7.07405 11.2889 7.03125 11.3923 7.03125 11.5C7.03125 11.5065 7.03141 11.513 7.03172 11.5195C7.03657 11.6204 7.07882 11.7158 7.15024 11.7873L9.99399 14.631C10.1526 14.7897 10.4099 14.7897 10.5685 14.631L16.256 8.94351C16.3322 8.86733 16.375 8.76399 16.375 8.65625C16.375 8.54851 16.3322 8.44517 16.256 8.36899C16.1798 8.2928 16.0765 8.25 15.9688 8.25C15.861 8.25 15.7577 8.2928 15.6815 8.36899L10.2812 13.7692L7.72491 11.2129Z" fill="white"/>
<path d="M2 11.75C2 6.36522 6.36522 2 11.75 2C17.1348 2 21.5 6.36522 21.5 11.75C21.5 17.1348 17.1348 21.5 11.75 21.5C6.36522 21.5 2 17.1348 2 11.75Z" stroke="white" stroke-width="0.4"/>
<path d="M7.72491 11.2129C7.64873 11.1367 7.54524 11.0938 7.4375 11.0938C7.32976 11.0937 7.22642 11.1366 7.15024 11.2127C7.07405 11.2889 7.03125 11.3923 7.03125 11.5C7.03125 11.5065 7.03141 11.513 7.03172 11.5195C7.03657 11.6204 7.07882 11.7158 7.15024 11.7873L9.99399 14.631C10.1526 14.7897 10.4099 14.7897 10.5685 14.631L16.256 8.94351C16.3322 8.86733 16.375 8.76399 16.375 8.65625C16.375 8.54851 16.3322 8.44517 16.256 8.36899C16.1798 8.2928 16.0765 8.25 15.9688 8.25C15.861 8.25 15.7577 8.2928 15.6815 8.36899L10.2812 13.7692L7.72491 11.2129Z" stroke="white" stroke-width="0.4"/>
</svg>
