<svg width="24" height="24" viewBox="0 0 24 24" fill="none" xmlns="http://www.w3.org/2000/svg">
<path d="M20.25 4.5H3.75C3.33579 4.5 3 4.83579 3 5.25C3 5.66421 3.33579 6 3.75 6H20.25C20.6642 6 21 5.66421 21 5.25C21 4.83579 20.6642 4.5 20.25 4.5Z" fill="#252525"/>
<path d="M8.25 3H15.75C16.1642 3 16.5 2.66421 16.5 2.25C16.5 1.83579 16.1642 1.5 15.75 1.5H8.25C7.83579 1.5 7.5 1.83579 7.5 2.25C7.5 2.66421 7.83579 3 8.25 3Z" fill="#252525"/>
<path d="M6 19.5V5.25C6 4.83579 5.66421 4.5 5.25 4.5C4.83579 4.5 4.5 4.83579 4.5 5.25V19.5C4.5 20.1213 4.93934 20.5607 4.93934 20.5607C5.37868 21 6 21 6 21H18C18.6213 21 19.0607 20.5607 19.0607 20.5607C19.5 20.1213 19.5 19.5 19.5 19.5V5.25C19.5 4.83579 19.1642 4.5 18.75 4.5C18.3358 4.5 18 4.83579 18 5.25V19.5H6Z" fill="#252525"/>
</svg>
